<?xml version="1.0" encoding="UTF-8" standalone="no"?>
<!-- Created with Inkscape (http://www.inkscape.org/) -->

<svg
   width="72.956062mm"
   height="16.400726mm"
   viewBox="0 0 72.956062 16.400726"
   version="1.1"
   id="svg1"
   inkscape:version="1.3.2 (091e20e, 2023-11-25)"
   sodipodi:docname="logo-bw.svg"
   inkscape:export-filename="../../Desktop/logo.svg"
   inkscape:export-xdpi="96"
   inkscape:export-ydpi="96"
   xmlns:inkscape="http://www.inkscape.org/namespaces/inkscape"
   xmlns:sodipodi="http://sodipodi.sourceforge.net/DTD/sodipodi-0.dtd"
   xmlns="http://www.w3.org/2000/svg"
   xmlns:svg="http://www.w3.org/2000/svg">
  <sodipodi:namedview
     id="namedview1"
     pagecolor="#ffffff"
     bordercolor="#999999"
     borderopacity="1"
     inkscape:showpageshadow="2"
     inkscape:pageopacity="0"
     inkscape:pagecheckerboard="0"
     inkscape:deskcolor="#d1d1d1"
     inkscape:document-units="mm"
     inkscape:zoom="1.410948"
     inkscape:cx="403.27496"
     inkscape:cy="369.60965"
     inkscape:window-width="1224"
     inkscape:window-height="796"
     inkscape:window-x="217"
     inkscape:window-y="25"
     inkscape:window-maximized="0"
     inkscape:current-layer="g2"
     inkscape:export-bgcolor="#ffffff00" />
  <defs
     id="defs1">
    <linearGradient
       id="swatch12"
       inkscape:swatch="solid">
      <stop
         style="stop-color:#000000;stop-opacity:1;"
         offset="0"
         id="stop12" />
    </linearGradient>
    <linearGradient
       id="swatch11"
       inkscape:swatch="solid">
      <stop
         style="stop-color:#0000ff;stop-opacity:1;"
         offset="0"
         id="stop11" />
    </linearGradient>
    <linearGradient
       id="swatch10"
       inkscape:swatch="solid">
      <stop
         style="stop-color:#000000;stop-opacity:1;"
         offset="0"
         id="stop10" />
    </linearGradient>
    <linearGradient
       id="swatch9"
       inkscape:swatch="solid">
      <stop
         style="stop-color:#000000;stop-opacity:1;"
         offset="0"
         id="stop9" />
    </linearGradient>
    <linearGradient
       id="swatch8"
       inkscape:swatch="solid">
      <stop
         style="stop-color:#d93232;stop-opacity:1;"
         offset="0"
         id="stop8" />
    </linearGradient>
    <linearGradient
       id="swatch7"
       inkscape:swatch="solid">
      <stop
         style="stop-color:#4c9a66;stop-opacity:0;"
         offset="0"
         id="stop7" />
    </linearGradient>
    <linearGradient
       id="swatch6"
       inkscape:swatch="solid">
      <stop
         style="stop-color:#000000;stop-opacity:1;"
         offset="0"
         id="stop6" />
    </linearGradient>
  </defs>
  <g
     inkscape:label="Layer 1"
     inkscape:groupmode="layer"
     id="layer1"
     transform="translate(-70.760797,-124.09779)">
    <g
       id="g1"
       transform="translate(4.6269305,-158.63762)">
      <path
         id="text2-5-02-03-5-7"
         style="-inkscape-font-specification:'.New York Italic';stroke-width:0.264583"
         d="m 116.99825,282.73541 c -0.5619,0 -1.04202,0.24452 -1.44126,0.73329 -0.39924,0.47066 -0.59893,1.04999 -0.59893,1.73787 v 2.17196 h -1.48621 v 1.05937 h 1.48621 v 10.39937 h 0.88729 V 288.4379 h 1.68568 v -1.05937 h -1.68568 v -2.17196 c 0,-0.45256 0.11791,-0.83276 0.3545,-1.1405 0.2218,-0.32584 0.49531,-0.48885 0.82062,-0.48885 h 0.51056 v -0.84181 z m 2.08514,0 v 1.65623 h 0.88729 v -1.65623 z m 3.72639,0 v 16.10186 h 0.88728 v -16.10186 z m -40.374281,2.17247 -2.799827,0.16382 -0.0026,0.01 0.305924,0.12557 c 0.232968,0.0965 0.36398,0.20257 0.392739,0.31833 0.03681,0.10932 -0.0071,0.29547 -0.131258,0.55914 l -5.988779,12.91652 h 0.636653 l 1.482079,-0.90692 c -0.0036,0.21865 0.106593,0.44729 0.329697,0.68523 0.223101,0.23794 0.665707,0.35657 1.328084,0.35657 0.70096,0 1.374741,-0.17364 2.021582,-0.5209 0.648456,-0.3537 1.242312,-0.82298 1.781802,-1.40818 0.539492,-0.58521 1.003128,-1.23777 1.390096,-1.95802 0.393402,-0.72026 0.683612,-1.45338 0.871265,-2.19935 0.148829,-0.59164 0.195097,-1.13183 0.137977,-1.62058 -0.05069,-0.48874 -0.210488,-0.87798 -0.478524,-1.16737 -0.259991,-0.29581 -0.634185,-0.4439 -1.122929,-0.4439 -0.70096,0 -1.388463,0.26723 -2.062925,0.80099 -0.674461,0.53376 -1.268944,1.29868 -1.783351,2.29546 z m 47.693731,2.06344 c -0.56189,0 -1.08714,0.20842 -1.5751,0.62477 -0.48796,0.39826 -0.86504,0.94096 -1.1312,1.62884 v -1.95492 h -0.88728 v 11.56726 h 0.88728 l 1e-5,-7.63003 c 0.14786,-0.97753 0.48085,-1.7921 0.99838,-2.44378 0.53232,-0.63358 1.13088,-0.95033 1.79628,-0.95033 0.56189,0 1.04253,0.27135 1.44177,0.81442 0.39924,0.54307 0.59893,1.19514 0.59893,1.95544 v 8.25428 h 0.88728 v -7.84707 c 0.13308,-0.92322 0.47299,-1.68362 1.0201,-2.281 0.5471,-0.59737 1.16848,-0.89607 1.86345,-0.89607 0.60625,0 1.11611,0.27135 1.53014,0.81442 0.42881,0.54307 0.64337,1.19514 0.64337,1.95544 v 8.25428 h 0.88728 v -8.25428 c 0,-0.99563 -0.29582,-1.84682 -0.88728,-2.55281 -0.60625,-0.706 -1.33068,-1.05886 -2.17351,-1.05886 -0.68019,0 -1.309,0.21719 -1.88568,0.65164 -0.56189,0.41636 -0.98306,0.98692 -1.264,1.71101 -0.14787,-0.68789 -0.48085,-1.25845 -0.99839,-1.71101 -0.50274,-0.43445 -1.08643,-0.65164 -1.75183,-0.65164 z m -11.04584,0.29869 v 11.56726 h 0.88729 v -11.56726 z m -46.719111,2.54765 c -0.70096,0 -1.375707,0.17702 -2.024163,0.53072 -0.646841,0.34726 -1.239728,0.81367 -1.779221,1.39888 -0.539493,0.58521 -1.006,1.23777 -1.399399,1.95802 -0.386971,0.72026 -0.674309,1.45337 -0.861962,2.19935 -0.147212,0.58521 -0.196347,1.1254 -0.147277,1.62057 0.05712,0.48875 0.218821,0.88086 0.485241,1.17667 0.268039,0.28939 0.6432,0.43409 1.125512,0.43409 0.707392,0 1.398281,-0.26671 2.072743,-0.80047 0.676076,-0.54019 1.267689,-1.30563 1.774052,-2.29599 -0.09035,0.20579 -0.184338,0.41175 -0.281121,0.61754 -0.09678,0.20578 -0.190252,0.41175 -0.280602,0.61753 -0.312955,0.68167 -0.398904,1.16398 -0.257867,1.44694 0.149091,0.27653 0.439366,0.41445 0.870232,0.41445 0.398711,0 0.812774,-0.0868 1.242302,-0.26045 0.42953,-0.17364 0.768919,-0.39837 1.018542,-0.6749 l -0.0072,-0.01 c -0.128775,0.1029 -0.289613,0.1931 -0.482658,0.27027 -0.193042,0.0772 -0.376204,0.11576 -0.549837,0.11576 -0.212217,0 -0.361955,-0.0709 -0.448551,-0.21239 -0.08016,-0.14148 -0.03695,-0.3889 0.129191,-0.74259 l 3.568775,-7.66879 h -0.636653 l -1.472264,0.90641 c 0.01,-0.21865 -0.09677,-0.44677 -0.319877,-0.68472 -0.223101,-0.23793 -0.669094,-0.35708 -1.337903,-0.35708 z m 17.903817,0 c -0.655944,0 -1.299411,0.15434 -1.930115,0.46302 -0.622652,0.30225 -1.203633,0.72043 -1.743046,1.25419 -0.532981,0.53376 -0.999605,1.14773 -1.399398,1.84226 -0.391743,0.6881 -0.684373,1.41835 -0.878498,2.19005 -0.190888,0.75884 -0.218507,1.40514 -0.08268,1.9389 0.142257,0.53376 0.416368,0.9389 0.822689,1.21543 0.406321,0.27653 0.908815,0.41445 1.506885,0.41445 0.450157,0 0.878747,-0.0675 1.28571,-0.20258 0.408575,-0.14147 0.781868,-0.32136 1.119827,-0.54002 0.346007,-0.22507 0.637125,-0.46284 0.873849,-0.71365 l -0.0072,-0.01 c -0.21092,0.19935 -0.528637,0.41496 -0.953431,0.64647 -0.416746,0.22508 -0.869828,0.33745 -1.358574,0.33745 -0.418002,0 -0.767018,-0.11915 -1.047996,-0.35709 -0.280981,-0.23794 -0.462376,-0.59146 -0.543636,-1.06092 -0.07965,-0.47588 -0.0297,-1.07056 0.149861,-1.78438 0.05816,-0.23121 0.134002,-0.47245 0.212908,-0.7152 l 0.702798,-0.20154 c 1.170933,-0.33441 2.113432,-0.65561 2.827735,-0.96429 0.720733,-0.30868 1.261475,-0.63039 1.622123,-0.9648 0.368694,-0.34083 0.605401,-0.72042 0.710552,-1.13843 0.131034,-0.52089 0.02378,-0.92604 -0.321428,-1.21543 -0.34521,-0.28938 -0.867935,-0.43408 -1.568898,-0.43408 z m 19.253604,0 c -0.75883,0 -1.47274,0.14183 -2.14199,0.42478 -0.66281,0.28296 -1.2622,0.67168 -1.79834,1.16686 -0.53452,0.48874 -0.9873,1.04822 -1.35805,1.67845 -0.37076,0.63022 -0.64429,1.29581 -0.82062,1.99678 -0.2006,0.79742 -0.22322,1.5016 -0.0682,2.11253 0.16305,0.6045 0.46437,1.08055 0.90434,1.42782 0.44802,0.34083 1.00028,0.51108 1.65623,0.51108 0.75884,0 1.46935,-0.14131 2.13217,-0.42427 0.66925,-0.28296 1.27105,-0.66881 1.80557,-1.15755 0.53614,-0.49517 0.98989,-1.05805 1.36064,-1.68827 0.37076,-0.63022 0.6443,-1.29581 0.82063,-1.99677 0.20059,-0.79743 0.21937,-1.49822 0.0563,-2.10272 -0.15499,-0.61093 -0.45683,-1.08698 -0.90485,-1.42782 -0.43997,-0.34726 -0.98788,-0.5209 -1.64383,-0.5209 z m -19.260839,0.0289 c 0.36013,0 0.587046,0.0936 0.681614,0.28009 0.09456,0.18649 0.100588,0.44355 0.01808,0.77153 -0.09868,0.39228 -0.2616,0.77187 -0.488857,1.13843 -0.225641,0.36013 -0.50973,0.69775 -0.852662,1.01286 -0.334885,0.30868 -0.723828,0.58842 -1.166338,0.83922 -0.440891,0.24437 -0.922633,0.44695 -1.445389,0.60772 l -0.706417,0.22014 c 0.115084,-0.35198 0.245529,-0.71213 0.404109,-1.08831 0.279144,-0.64952 0.60298,-1.26062 0.972034,-1.83296 0.375486,-0.57235 0.782225,-1.03875 1.220081,-1.39888 0.439475,-0.36656 0.89429,-0.54984 1.36374,-0.54984 z m 19.253609,0 c 0.6045,0 0.97954,0.27348 1.12499,0.82011 0.14707,0.54019 0.0751,1.36351 -0.216,2.46961 -0.1488,0.56592 -0.34013,1.13505 -0.57413,1.70739 -0.23401,0.57235 -0.50259,1.11541 -0.80563,1.62988 -0.29501,0.50803 -0.61497,0.96141 -0.95964,1.36012 -0.33662,0.39228 -0.6917,0.70435 -1.06505,0.93586 -0.3653,0.22508 -0.7373,0.33745 -1.11672,0.33745 -0.6045,0 -0.98052,-0.2701 -1.12758,-0.81029 -0.14546,-0.54662 -0.0725,-1.37281 0.21859,-2.47892 0.15041,-0.57234 0.34174,-1.14147 0.57412,-1.70739 0.23401,-0.57234 0.49875,-1.11253 0.79375,-1.62057 0.30305,-0.51447 0.62249,-0.96784 0.95912,-1.36012 0.34467,-0.39871 0.69975,-0.71078 1.06505,-0.93586 0.37334,-0.23151 0.74971,-0.34727 1.12913,-0.34727 z m -13.258624,0.0196 -2.868044,0.31832 -0.0021,0.009 0.305925,0.12557 c 0.232967,0.0965 0.36398,0.20257 0.392739,0.31833 0.03681,0.10932 -0.0071,0.29599 -0.131259,0.55965 l -3.631817,7.80366 h 1.67845 l 2.903181,-6.21202 c 0.381677,-0.41801 0.843184,-0.79421 1.383894,-1.12862 0.540712,-0.3344 1.058738,-0.50178 1.553911,-0.50178 0.173632,0 0.318366,0.013 0.434083,0.0388 0.117331,0.0193 0.201288,0.0415 0.252698,0.0672 0.04991,-0.045 0.106648,-0.11541 0.169498,-0.21187 0.0709,-0.1029 0.12409,-0.22543 0.159679,-0.3669 0.06147,-0.24438 0.04645,-0.44017 -0.04496,-0.58808 -0.08498,-0.14791 -0.255913,-0.22221 -0.513146,-0.22221 -0.23794,0 -0.501048,0.0868 -0.789098,0.26045 -0.28162,0.17363 -0.629518,0.4698 -1.043347,0.8878 -0.413832,0.418 -0.932128,0.99678 -1.555462,1.73633 z m 6.029094,0 -2.868048,0.31832 -0.0026,0.009 0.306441,0.12557 c 0.232969,0.0965 0.363467,0.20257 0.392217,0.31833 0.0368,0.10932 -0.007,0.29599 -0.130734,0.55965 l -3.632336,7.80366 h 1.67845 l 2.9037,-6.21202 c 0.38167,-0.41801 0.84318,-0.79421 1.38389,-1.12862 0.54071,-0.3344 1.05822,-0.50178 1.55339,-0.50178 0.17364,0 0.31837,0.013 0.43408,0.0388 0.11734,0.0193 0.20181,0.0415 0.25322,0.0672 0.0499,-0.045 0.10613,-0.11541 0.16898,-0.21187 0.0709,-0.1029 0.12409,-0.22543 0.15968,-0.3669 0.0615,-0.24438 0.047,-0.44017 -0.0444,-0.58808 -0.085,-0.14791 -0.25643,-0.22221 -0.51366,-0.22221 -0.23795,0 -0.50105,0.0868 -0.7891,0.26045 -0.28162,0.17363 -0.629,0.4698 -1.04283,0.8878 -0.41383,0.418 -0.93265,0.99678 -1.55598,1.73633 z m -29.435935,0.13487 c 0.366556,0 0.644609,0.0834 0.834056,0.25063 0.195882,0.16721 0.304985,0.37316 0.327115,0.61754 l -2.376602,5.11235 c -0.420862,0.80385 -0.904725,1.45015 -1.452107,1.9389 -0.547379,0.48874 -1.046392,0.73329 -1.496549,0.73329 -0.418007,0 -0.69824,-0.17702 -0.840776,-0.53072 -0.140919,-0.36013 -0.105466,-0.96107 0.106453,-1.80351 0.14074,-0.55948 0.326778,-1.132 0.557589,-1.71721 0.238861,-0.59163 0.513619,-1.16076 0.824757,-1.70739 0.311137,-0.54662 0.653659,-1.03858 1.027326,-1.47588 0.373668,-0.43729 0.769187,-0.78117 1.185976,-1.03197 0.418403,-0.25724 0.852602,-0.38603 1.302762,-0.38603 z m 8.818583,0.29921 c 0.418007,0 0.697273,0.17989 0.838193,0.54002 0.142537,0.35369 0.108049,0.95176 -0.10387,1.7942 -0.14074,0.55949 -0.330615,1.13488 -0.569476,1.72651 -0.230811,0.58521 -0.501732,1.15147 -0.81287,1.69809 -0.311137,0.54662 -0.65366,1.03858 -1.027326,1.47588 -0.373669,0.4373 -0.769639,0.78457 -1.188041,1.0418 -0.416788,0.2508 -0.850021,0.3762 -1.300181,0.3762 -0.366556,0 -0.647993,-0.0839 -0.843875,-0.25115 -0.187832,-0.17363 -0.293548,-0.37907 -0.317293,-0.61701 l 2.376083,-5.11287 c 0.427294,-0.80385 0.911157,-1.45015 1.452107,-1.9389 0.547379,-0.48874 1.046392,-0.73277 1.496549,-0.73277 z" />
    </g>
  </g>
</svg>
